<?xml version="1.0" encoding="utf-8"?>
<!-- Generator: Adobe Illustrator 17.0.0, SVG Export Plug-In . SVG Version: 6.00 Build 0)  -->
<!DOCTYPE svg PUBLIC "-//W3C//DTD SVG 1.1//EN" "http://www.w3.org/Graphics/SVG/1.1/DTD/svg11.dtd">
<svg version="1.1" id="Layer_1" xmlns="http://www.w3.org/2000/svg" xmlns:xlink="http://www.w3.org/1999/xlink" x="0px" y="0px"
	 width="81.875px" height="61.757px" viewBox="0 0 81.875 61.757" enable-background="new 0 0 81.875 61.757" xml:space="preserve">
<image display="none" overflow="visible" width="50" height="50" xlink:href="wishlist-icon.png"  transform="matrix(0.72 0 0 0.72 22.9375 9.625)">
</image>
<path fill="#333333" d="M43.474,14.692c0,0,3.718-1.77,8.133-3.406c0,0,5.978-2.721,13.038,2.752c0,0,5.773,3.487,5.351,11.815
	c0,0,0.071,6.633-5.256,13.934c0,0-4.545,5.987-9.798,10.296c0,0-4.723,4.001-7.841,7.419c0,0-2.288,2.856-3.166,4.255
	c0,0,8.321-6.459,17.075-11.394c0,0,7.119-4.036,13.08-13.727c0,0,2.553-2.651,4.603-6.851c1.378-2.824,2.528-6.349,2.52-10.238
	c0,0-0.41-17.732-17.849-19.073c0,0-11.847-1.634-19.756,12.046C43.607,12.521,42.888,14.202,43.474,14.692z"/>
<path fill="#333333" d="M79.941,26.794c0,0-5.514,11.788-11.741,17.549"/>
<path fill="#333333" d="M80.376,25.407"/>
<path fill="#333333" d="M81.415,15.563c0,0,5.583,25.96-36.839,45.516c0,0,32.838-22.347,24.965-42.431
	c0,0-5.854-15.602-25.426-4.634C44.116,14.013,72.184-12.424,81.415,15.563z"/>
<path fill="#333333" d="M40.104,22.957"/>
<path fill="#333333" d="M39.268,14.372c0,0-3.812-1.742-8.336-3.346c0,0-6.128-2.677-13.328,2.848c0,0-5.892,3.53-5.422,11.855
	c0,0-0.043,6.634,5.44,13.896c0,0,4.677,5.954,10.071,10.224c0,0,4.85,3.966,8.055,7.362c0,0,2.354,2.84,3.259,4.232
	c0,0-8.543-6.398-17.521-11.268c0,0-7.302-3.983-13.444-13.631c0,0-2.624-2.633-4.74-6.817c-1.423-2.814-2.615-6.33-2.624-10.22
	c0,0,0.341-17.736,18.178-19.207c0,0,12.114-1.722,20.268,11.901C39.123,12.202,39.866,13.878,39.268,14.372z"/>
<path fill="#333333" d="M2.01,26.746c0,0,5.694,11.748,12.091,17.464"/>
<path fill="#333333" d="M1.559,25.362"/>
<path fill="#333333" d="M0.452,15.525c0,0-5.597,26.003,37.894,45.246c0,0-33.698-22.105-25.732-42.249
	c0,0,5.921-15.646,25.994-4.823C38.609,13.698,9.772-12.533,0.452,15.525z"/>
<path fill="#333333" d="M42.754,22.916"/>
</svg>
